<?xml version="1.0" encoding="UTF-8"?>
<svg id="Layer_1" xmlns="http://www.w3.org/2000/svg" version="1.1" viewBox="0 0 80 80">
  <!-- Generator: Adobe Illustrator 30.0.0, SVG Export Plug-In . SVG Version: 2.1.1 Build 123)  -->
  <path d="M38.4,39.4c0,.6-.5,1.1-1.1,1.1s-1.1-.5-1.1-1.1.5-1.1,1.1-1.1,1.1.5,1.1,1.1ZM46.3,38.3c-.6,0-1.1.5-1.1,1.1s.5,1.1,1.1,1.1,1.1-.5,1.1-1.1-.5-1.1-1.1-1.1ZM63.1,29.7v7.2c1.4,1.2,1.5,3.4.2,4.8,0,0-.2.2-.2.2v8.7c0,11.8-9.6,21.3-21.3,21.3h-21.3v-30.1c-1.4-1.2-1.5-3.4-.2-4.8,0,0,.2-.2.2-.2v-4.1c-2.7-1.7-4.9-4.1-6.2-7.1l-1.3-3.1,10.8-4.6h0c6.3-10,19.4-13,29.4-6.7,3.6,2.3,6.5,5.6,8.2,9.5h0l5.7,2.5-1.1,2.5c-.7,1.5-1.6,2.9-2.8,4.1ZM56.7,32.9c-2.3.4-4.6,0-6.7-.8h0c-2.8-1.2-5.1-3.3-6.6-6-1.9,3.5-4.9,6.3-8.5,7.9h0c-2.7,1.2-5.6,1.5-8.5,1.1h0c-.1.4-.2.7-.3,1.1s-.2.8-.3,1.1c-.4,1.4-.6,2.9-.7,4.4v1.1c.3,8.5,7.6,15.2,16.8,15.2s16.5-6.6,16.8-15.2v-1.1c0-1.5-.3-3-.6-4.5,0-.4-.2-.7-.3-1.1-.3-1.1-.7-2.1-1.1-3.1h0ZM20.5,39.4c0,1.2,1,2.2,2.2,2.2h1.1c0-1.5.3-3,.6-4.5h-1.8c-1.2,0-2.2,1-2.2,2.2ZM63.1,39.4c0-1.2-1-2.2-2.2-2.2h-1.8c.4,1.5.6,3,.6,4.5h1.1c1.2,0,2.2-1,2.2-2.2Z"/>
</svg>